<?xml version="1.0" encoding="utf-8"?>
<!-- Generator: Adobe Illustrator 25.3.1, SVG Export Plug-In . SVG Version: 6.00 Build 0)  -->
<svg version="1.1" id="Layer_1" xmlns="http://www.w3.org/2000/svg" xmlns:xlink="http://www.w3.org/1999/xlink" x="0px" y="0px"
	 viewBox="0 0 117.5 260" style="enable-background:new 0 0 117.5 260;" xml:space="preserve">
<style type="text/css">
	.st0{fill:#FFFFFF;}
</style>
<path class="st0" d="M0,260c0-9.1,0-18.2,0-27.4c0-20.4,0-40.9,0-61.3c0-21.3,0-42.7,0-64c0-11.8-0.5-23.8,0-35.6
	c0.7-17.9,5.7-35.9,18-49.5C32.7,6,56.8,0.3,77.4,7.5c15.2,5.3,27.7,17.3,33.8,32.1c7.3,17.8,6.4,37.6,6.7,56.6
	c0.4,27.3-0.5,54.6-0.5,81.9c0,19.2,0,38.3,0,57.5c0,8.2,0,16.3,0,24.5"/>
</svg>
